<?xml version="1.0" standalone="no"?>
<!DOCTYPE svg PUBLIC "-//W3C//DTD SVG 20010904//EN"
 "http://www.w3.org/TR/2001/REC-SVG-20010904/DTD/svg10.dtd">
<svg version="1.0" xmlns="http://www.w3.org/2000/svg"
 width="260.000000pt" height="260.000000pt" viewBox="0 0 260.000000 260.000000"
 preserveAspectRatio="xMidYMid meet">
<metadata>
Created by potrace 1.11, written by Peter Selinger 2001-2013
</metadata>
<g transform="translate(0.000000,260.000000) scale(0.100000,-0.100000)"
fill="#000000" stroke="none">
<path d="M0 1300 l0 -1300 1300 0 1300 0 0 1300 0 1300 -1300 0 -1300 0 0
-1300z m820 590 l0 -70 75 0 75 0 0 -70 0 -69 78 -3 77 -3 3 -512 2 -513 -160
0 -160 0 0 220 0 220 -150 0 -150 0 -2 -217 -3 -218 -157 -3 -158 -3 0 516 0
515 75 0 74 0 3 68 3 67 78 3 77 3 0 69 0 70 160 0 160 0 0 -70z m1550 -5 l0
-75 -310 0 -310 0 0 -215 0 -215 235 0 235 0 0 -75 0 -75 -235 0 -235 0 0
-215 0 -215 310 0 310 0 0 -75 0 -75 -470 0 -470 0 0 655 0 655 470 0 470 0 0
-75z"/>
<path d="M510 1455 l0 -215 150 0 150 0 0 215 0 215 -150 0 -150 0 0 -215z"/>
</g>
</svg>
